<mxfile host="app.diagrams.net" modified="2023-05-22T09:02:53.773Z" agent="5.0 (Windows NT 10.0; Win64; x64) AppleWebKit/537.36 (KHTML, like Gecko) Chrome/113.0.0.0 Safari/537.36" etag="lxtE4J4T5lLVHvRcEJcQ" version="20.8.16" type="github">
  <diagram name="Page-1" id="03018318-947c-dd8e-b7a3-06fadd420f32">
    <mxGraphModel dx="1195" dy="637" grid="1" gridSize="10" guides="1" tooltips="1" connect="1" arrows="1" fold="1" page="1" pageScale="1" pageWidth="1100" pageHeight="850" background="#ffffff" math="0" shadow="0">
      <root>
        <mxCell id="0" />
        <mxCell id="1" parent="0" />
        <mxCell id="677b7b8949515195-2" value="LOGO" style="whiteSpace=wrap;html=1;rounded=0;shadow=0;labelBackgroundColor=none;strokeWidth=1;fontFamily=Verdana;fontSize=28;align=center;comic=1;" parent="1" vertex="1">
          <mxGeometry x="40" y="60" width="190" height="50" as="geometry" />
        </mxCell>
        <mxCell id="677b7b8949515195-3" value="Search" style="strokeWidth=1;shadow=0;dashed=0;align=center;html=1;shape=mxgraph.mockup.forms.searchBox;strokeColor=#999999;mainText=;strokeColor2=#008cff;fontColor=#666666;fontSize=17;align=left;spacingLeft=3;rounded=0;labelBackgroundColor=none;comic=1;" parent="1" vertex="1">
          <mxGeometry x="840" y="95" width="220" height="30" as="geometry" />
        </mxCell>
        <mxCell id="677b7b8949515195-4" value="Topic 1" style="text;html=1;points=[];align=left;verticalAlign=top;spacingTop=-4;fontSize=14;fontFamily=Verdana" parent="1" vertex="1">
          <mxGeometry x="780" y="40" width="60" height="20" as="geometry" />
        </mxCell>
        <mxCell id="677b7b8949515195-5" value="Topic 2" style="text;html=1;points=[];align=left;verticalAlign=top;spacingTop=-4;fontSize=14;fontFamily=Verdana" parent="1" vertex="1">
          <mxGeometry x="860" y="40" width="60" height="20" as="geometry" />
        </mxCell>
        <mxCell id="677b7b8949515195-6" value="Topic 3" style="text;html=1;points=[];align=left;verticalAlign=top;spacingTop=-4;fontSize=14;fontFamily=Verdana" parent="1" vertex="1">
          <mxGeometry x="930" y="40" width="60" height="20" as="geometry" />
        </mxCell>
        <mxCell id="677b7b8949515195-7" value="Topic 4" style="text;html=1;points=[];align=left;verticalAlign=top;spacingTop=-4;fontSize=14;fontFamily=Verdana" parent="1" vertex="1">
          <mxGeometry x="1000" y="40" width="60" height="20" as="geometry" />
        </mxCell>
        <mxCell id="677b7b8949515195-9" value="" style="line;strokeWidth=1;html=1;rounded=0;shadow=0;labelBackgroundColor=none;fillColor=none;fontFamily=Verdana;fontSize=14;fontColor=#000000;align=center;comic=1;" parent="1" vertex="1">
          <mxGeometry x="20" y="140" width="1060" height="10" as="geometry" />
        </mxCell>
        <mxCell id="677b7b8949515195-10" value="" style="whiteSpace=wrap;html=1;rounded=0;shadow=0;labelBackgroundColor=none;strokeWidth=1;fillColor=none;fontFamily=Verdana;fontSize=12;align=center;comic=1;" parent="1" vertex="1">
          <mxGeometry x="30" y="160" width="1120" height="50" as="geometry" />
        </mxCell>
        <mxCell id="677b7b8949515195-11" value="Section 1" style="text;html=1;points=[];align=left;verticalAlign=top;spacingTop=-4;fontSize=14;fontFamily=Verdana" parent="1" vertex="1">
          <mxGeometry x="330" y="175" width="60" height="20" as="geometry" />
        </mxCell>
        <mxCell id="677b7b8949515195-12" value="Section 2" style="text;html=1;points=[];align=left;verticalAlign=top;spacingTop=-4;fontSize=14;fontFamily=Verdana" parent="1" vertex="1">
          <mxGeometry x="477" y="175" width="60" height="20" as="geometry" />
        </mxCell>
        <mxCell id="677b7b8949515195-13" value="Section 3" style="text;html=1;points=[];align=left;verticalAlign=top;spacingTop=-4;fontSize=14;fontFamily=Verdana" parent="1" vertex="1">
          <mxGeometry x="623" y="175" width="60" height="20" as="geometry" />
        </mxCell>
        <mxCell id="677b7b8949515195-14" value="Section 4" style="text;html=1;points=[];align=left;verticalAlign=top;spacingTop=-4;fontSize=14;fontFamily=Verdana" parent="1" vertex="1">
          <mxGeometry x="770" y="175" width="60" height="20" as="geometry" />
        </mxCell>
        <mxCell id="sEgmtD1Y4ZO5eSFx-lYp-2" value="" style="rounded=0;whiteSpace=wrap;html=1;" parent="1" vertex="1">
          <mxGeometry x="30" y="220" width="1120" height="370" as="geometry" />
        </mxCell>
        <mxCell id="sEgmtD1Y4ZO5eSFx-lYp-3" value="" style="rounded=0;whiteSpace=wrap;html=1;" parent="1" vertex="1">
          <mxGeometry x="330" y="230" width="190" height="160" as="geometry" />
        </mxCell>
        <mxCell id="sEgmtD1Y4ZO5eSFx-lYp-4" value="Entrance/Stair" style="rounded=0;whiteSpace=wrap;html=1;" parent="1" vertex="1">
          <mxGeometry x="330" y="500" width="490" height="80" as="geometry" />
        </mxCell>
        <mxCell id="sEgmtD1Y4ZO5eSFx-lYp-26" style="edgeStyle=orthogonalEdgeStyle;rounded=0;orthogonalLoop=1;jettySize=auto;html=1;exitX=0.5;exitY=1;exitDx=0;exitDy=0;entryX=0.5;entryY=1;entryDx=0;entryDy=0;" parent="1" source="sEgmtD1Y4ZO5eSFx-lYp-5" target="sEgmtD1Y4ZO5eSFx-lYp-10" edge="1">
          <mxGeometry relative="1" as="geometry">
            <Array as="points">
              <mxPoint x="560" y="300" />
              <mxPoint x="560" y="330" />
              <mxPoint x="475" y="330" />
            </Array>
          </mxGeometry>
        </mxCell>
        <mxCell id="sEgmtD1Y4ZO5eSFx-lYp-27" value="Discharge" style="edgeLabel;html=1;align=center;verticalAlign=middle;resizable=0;points=[];" parent="sEgmtD1Y4ZO5eSFx-lYp-26" vertex="1" connectable="0">
          <mxGeometry x="-0.3603" y="-1" relative="1" as="geometry">
            <mxPoint x="-84" y="-3" as="offset" />
          </mxGeometry>
        </mxCell>
        <mxCell id="sEgmtD1Y4ZO5eSFx-lYp-5" value="Boiling / Fermentation" style="rounded=0;whiteSpace=wrap;html=1;align=right;" parent="1" vertex="1">
          <mxGeometry x="537" y="260" width="243" height="40" as="geometry" />
        </mxCell>
        <mxCell id="sEgmtD1Y4ZO5eSFx-lYp-8" value="Storage/ Chiller" style="rounded=0;whiteSpace=wrap;html=1;" parent="1" vertex="1">
          <mxGeometry x="800" y="260" width="80" height="40" as="geometry" />
        </mxCell>
        <mxCell id="sEgmtD1Y4ZO5eSFx-lYp-20" style="edgeStyle=orthogonalEdgeStyle;rounded=0;orthogonalLoop=1;jettySize=auto;html=1;exitX=1;exitY=0.5;exitDx=0;exitDy=0;entryX=0.5;entryY=1;entryDx=0;entryDy=0;" parent="1" source="sEgmtD1Y4ZO5eSFx-lYp-9" target="sEgmtD1Y4ZO5eSFx-lYp-19" edge="1">
          <mxGeometry relative="1" as="geometry" />
        </mxCell>
        <mxCell id="sEgmtD1Y4ZO5eSFx-lYp-9" value="Filter" style="rounded=0;whiteSpace=wrap;html=1;" parent="1" vertex="1">
          <mxGeometry x="490" y="280" width="30" height="11" as="geometry" />
        </mxCell>
        <mxCell id="sEgmtD1Y4ZO5eSFx-lYp-10" value="Toilet" style="rounded=0;whiteSpace=wrap;html=1;" parent="1" vertex="1">
          <mxGeometry x="430" y="240" width="90" height="40" as="geometry" />
        </mxCell>
        <mxCell id="sEgmtD1Y4ZO5eSFx-lYp-22" style="edgeStyle=orthogonalEdgeStyle;rounded=0;orthogonalLoop=1;jettySize=auto;html=1;exitX=1;exitY=0.5;exitDx=0;exitDy=0;entryX=0;entryY=0.5;entryDx=0;entryDy=0;" parent="1" source="sEgmtD1Y4ZO5eSFx-lYp-17" target="sEgmtD1Y4ZO5eSFx-lYp-18" edge="1">
          <mxGeometry relative="1" as="geometry" />
        </mxCell>
        <mxCell id="sEgmtD1Y4ZO5eSFx-lYp-24" style="edgeStyle=orthogonalEdgeStyle;rounded=0;orthogonalLoop=1;jettySize=auto;html=1;exitX=0.5;exitY=1;exitDx=0;exitDy=0;entryX=0.369;entryY=0;entryDx=0;entryDy=0;entryPerimeter=0;" parent="1" source="sEgmtD1Y4ZO5eSFx-lYp-17" target="sEgmtD1Y4ZO5eSFx-lYp-5" edge="1">
          <mxGeometry relative="1" as="geometry" />
        </mxCell>
        <mxCell id="sEgmtD1Y4ZO5eSFx-lYp-17" value="" style="ellipse;whiteSpace=wrap;html=1;aspect=fixed;" parent="1" vertex="1">
          <mxGeometry x="570" y="230" width="10" height="10" as="geometry" />
        </mxCell>
        <mxCell id="sEgmtD1Y4ZO5eSFx-lYp-23" style="edgeStyle=orthogonalEdgeStyle;rounded=0;orthogonalLoop=1;jettySize=auto;html=1;exitX=0.5;exitY=1;exitDx=0;exitDy=0;entryX=0.796;entryY=0.002;entryDx=0;entryDy=0;entryPerimeter=0;" parent="1" source="sEgmtD1Y4ZO5eSFx-lYp-18" target="sEgmtD1Y4ZO5eSFx-lYp-5" edge="1">
          <mxGeometry relative="1" as="geometry">
            <Array as="points">
              <mxPoint x="618" y="260" />
            </Array>
          </mxGeometry>
        </mxCell>
        <mxCell id="sEgmtD1Y4ZO5eSFx-lYp-18" value="" style="ellipse;whiteSpace=wrap;html=1;aspect=fixed;" parent="1" vertex="1">
          <mxGeometry x="613" y="230" width="10" height="10" as="geometry" />
        </mxCell>
        <mxCell id="sEgmtD1Y4ZO5eSFx-lYp-21" style="edgeStyle=orthogonalEdgeStyle;rounded=0;orthogonalLoop=1;jettySize=auto;html=1;exitX=0.5;exitY=0;exitDx=0;exitDy=0;entryX=0;entryY=0.5;entryDx=0;entryDy=0;" parent="1" source="sEgmtD1Y4ZO5eSFx-lYp-19" target="sEgmtD1Y4ZO5eSFx-lYp-17" edge="1">
          <mxGeometry relative="1" as="geometry">
            <Array as="points">
              <mxPoint x="525" y="235" />
            </Array>
          </mxGeometry>
        </mxCell>
        <mxCell id="sEgmtD1Y4ZO5eSFx-lYp-28" value="Inflow" style="edgeLabel;html=1;align=center;verticalAlign=middle;resizable=0;points=[];" parent="sEgmtD1Y4ZO5eSFx-lYp-21" vertex="1" connectable="0">
          <mxGeometry x="-0.2389" y="-1" relative="1" as="geometry">
            <mxPoint x="8" y="-1" as="offset" />
          </mxGeometry>
        </mxCell>
        <mxCell id="sEgmtD1Y4ZO5eSFx-lYp-25" style="edgeStyle=orthogonalEdgeStyle;rounded=0;orthogonalLoop=1;jettySize=auto;html=1;exitX=1;exitY=0.5;exitDx=0;exitDy=0;entryX=0.011;entryY=0.131;entryDx=0;entryDy=0;entryPerimeter=0;" parent="1" source="sEgmtD1Y4ZO5eSFx-lYp-19" target="sEgmtD1Y4ZO5eSFx-lYp-5" edge="1">
          <mxGeometry relative="1" as="geometry" />
        </mxCell>
        <mxCell id="sEgmtD1Y4ZO5eSFx-lYp-19" value="" style="ellipse;whiteSpace=wrap;html=1;aspect=fixed;" parent="1" vertex="1">
          <mxGeometry x="520" y="260" width="10" height="10" as="geometry" />
        </mxCell>
        <mxCell id="sEgmtD1Y4ZO5eSFx-lYp-30" value="Floor" style="rounded=0;whiteSpace=wrap;html=1;" parent="1" vertex="1">
          <mxGeometry x="320" y="777" width="140" height="20" as="geometry" />
        </mxCell>
        <mxCell id="sEgmtD1Y4ZO5eSFx-lYp-31" value="Table" style="rounded=0;whiteSpace=wrap;html=1;" parent="1" vertex="1">
          <mxGeometry x="380" y="707" width="80" height="66" as="geometry" />
        </mxCell>
        <mxCell id="sEgmtD1Y4ZO5eSFx-lYp-32" value="Boiler/ Dispenser" style="rounded=0;html=1;whiteSpace=wrap;" parent="1" vertex="1">
          <mxGeometry x="390" y="642" width="70" height="60" as="geometry" />
        </mxCell>
        <mxCell id="sEgmtD1Y4ZO5eSFx-lYp-33" value="Pipe" style="ellipse;whiteSpace=wrap;html=1;aspect=fixed;" parent="1" vertex="1">
          <mxGeometry x="440" y="607" width="30" height="30" as="geometry" />
        </mxCell>
        <mxCell id="sEgmtD1Y4ZO5eSFx-lYp-34" value="Office" style="rounded=0;whiteSpace=wrap;html=1;" parent="1" vertex="1">
          <mxGeometry x="1050" y="237.5" width="90" height="342.5" as="geometry" />
        </mxCell>
        <mxCell id="sEgmtD1Y4ZO5eSFx-lYp-35" value="Storage Racks" style="rounded=0;whiteSpace=wrap;html=1;" parent="1" vertex="1">
          <mxGeometry x="890" y="234.5" width="150" height="205.5" as="geometry" />
        </mxCell>
        <mxCell id="sEgmtD1Y4ZO5eSFx-lYp-36" value="Office" style="rounded=0;whiteSpace=wrap;html=1;" parent="1" vertex="1">
          <mxGeometry x="830" y="450" width="210" height="130" as="geometry" />
        </mxCell>
        <mxCell id="sEgmtD1Y4ZO5eSFx-lYp-37" value="Office" style="rounded=0;whiteSpace=wrap;html=1;" parent="1" vertex="1">
          <mxGeometry x="670" y="451.75" width="150" height="44.5" as="geometry" />
        </mxCell>
        <mxCell id="sEgmtD1Y4ZO5eSFx-lYp-39" value="Resting / Ribat" style="rounded=0;whiteSpace=wrap;html=1;" parent="1" vertex="1">
          <mxGeometry x="40" y="230" width="270" height="350" as="geometry" />
        </mxCell>
        <mxCell id="sEgmtD1Y4ZO5eSFx-lYp-40" value="Bottling/Storage/ Chiller" style="rounded=0;whiteSpace=wrap;html=1;" parent="1" vertex="1">
          <mxGeometry x="410" y="451.75" width="120" height="44.5" as="geometry" />
        </mxCell>
        <mxCell id="UhZAmVKIM8HB2m7Gm_mt-1" value="Office" style="rounded=0;whiteSpace=wrap;html=1;" vertex="1" parent="1">
          <mxGeometry x="537" y="451.75" width="123.5" height="44.5" as="geometry" />
        </mxCell>
        <mxCell id="UhZAmVKIM8HB2m7Gm_mt-2" value="Bottle / Washing" style="rounded=0;whiteSpace=wrap;html=1;" vertex="1" parent="1">
          <mxGeometry x="336.25" y="341" width="103" height="40" as="geometry" />
        </mxCell>
        <mxCell id="UhZAmVKIM8HB2m7Gm_mt-4" value="Door" style="shape=or;whiteSpace=wrap;html=1;rotation=-90;" vertex="1" parent="1">
          <mxGeometry x="336.25" y="429.5" width="60" height="70.5" as="geometry" />
        </mxCell>
        <mxCell id="UhZAmVKIM8HB2m7Gm_mt-5" value="Sink" style="rounded=0;whiteSpace=wrap;html=1;" vertex="1" parent="1">
          <mxGeometry x="550" y="270" width="40" height="20" as="geometry" />
        </mxCell>
        <mxCell id="UhZAmVKIM8HB2m7Gm_mt-6" value="Toilet" style="rounded=0;whiteSpace=wrap;html=1;" vertex="1" parent="1">
          <mxGeometry x="336.25" y="240" width="83.75" height="40" as="geometry" />
        </mxCell>
        <mxCell id="UhZAmVKIM8HB2m7Gm_mt-8" value="" style="triangle;whiteSpace=wrap;html=1;rotation=90;" vertex="1" parent="1">
          <mxGeometry x="760" y="221.17" width="10" height="13.33" as="geometry" />
        </mxCell>
        <mxCell id="UhZAmVKIM8HB2m7Gm_mt-9" value="" style="triangle;whiteSpace=wrap;html=1;rotation=-90;" vertex="1" parent="1">
          <mxGeometry x="500" y="486.66999999999996" width="10" height="13.33" as="geometry" />
        </mxCell>
      </root>
    </mxGraphModel>
  </diagram>
</mxfile>
